<svg height="200" viewBox="0 0 682 200" width="682" xmlns="http://www.w3.org/2000/svg"><g fill="#bf0d3e" fill-rule="evenodd" transform=""><path d="m200 100c0-55.2266667-44.770667-100-100-100-55.228 0-100 44.7733333-100 100 0 55.226667 44.772 100 100 100 55.229333 0 100-44.773333 100-100m-100.2266667-85.3333333c-47 0-85.1066666 38.1066666-85.1066666 85.1066666 0 26.9999997 12.5746666 51.0799997 32.2146666 66.6533337.9133334.72 1.828 1.426666 2.7653334 2.106666.936.706667 1.892 1.36 2.8733333 2 .956.666667 1.936 1.28 2.9333333 1.893334.0666667.04.1293334.093333.1906667.133333.852.506667 1.704 1 2.5986667 1.48 2.744 1.56 5.5973333 2.96 8.5306666 4.173333.596.28 1.1933334.506667 1.7866667.746667.96.386667 1.9573333.76 2.9586667 1.106667.9773333.346666 1.9573333.653333 2.9586666.973333.2333334.093333.4866667.16.744.24.744.213333 1.5093334.44 2.2773334.64.316.106667.6573333.186667 1.0186666.28 1.0013334.253333 2.044.506667 3.0666667.72.9346667.213333 1.8693333.4 2.8066667.546667.1053333.053333.2146666.066666.3186666.066666.4266667.093334.8506667.146667 1.2773334.213334.6373333.133333 1.2573333.213333 1.8933333.293333 1.192.173333 2.4053333.32 3.6186667.426667.4666666.053333.936.093333 1.38.133333.1293333.013333.2373333.013333.34.013333.94.093334 1.8746666.133334 2.8306666.173334 1.2346667.066666 2.468.093333 3.724.093333 1.2546667 0 2.4893337-.026667 3.7226667-.093333.96-.04 1.896-.08 2.830667-.173334.108 0 .212 0 .34-.013333.449333-.04.914666-.08 1.384-.133333 1.214666-.106667 2.426666-.253334 3.616-.426667.64-.08 1.254666-.16 1.894666-.293333.424-.066667.852-.12 1.276-.213334.108 0 .212-.013333.32-.066666.934667-.146667 1.873334-.333334 2.809334-.546667 1.022666-.213333 2.062666-.466667 3.062666-.72.361334-.093333.701334-.173333 1.021334-.28.765333-.2 1.532-.426667 2.278666-.64.252-.08.510667-.146667.742667-.24 1.002667-.32 2-.626667 2.98-.973333.997333-.36 1.977333-.72 2.933333-1.106667.598667-.24 1.193334-.466667 1.788-.746667 2.937334-1.213333 5.788-2.613333 8.532-4.173333.894667-.48 1.744-.973333 2.596-1.48.065334-.04.128-.093333.190667-.133333 1.002667-.613334 1.978667-1.226667 2.938667-1.893334.976-.64 1.936-1.293333 2.872-2 .934666-.68 1.848-1.386666 2.766666-2.106666 19.634667-15.573334 32.210667-39.653334 32.210667-66.6533337 0-47-38.106667-85.1066666-85.1066667-85.1066666zm36.4479997 154.8933333c-4.466666-.986667-8.638666-3.386667-11.809333-7.146667-.785333-.946666-1.468-1.92-2.061333-2.946666 24.126666-9.106667 41.252-32.4 41.252-59.6933337 0-35.2533333-28.573334-63.84-63.8293337-63.84-35.256 0-63.8306666 28.5866667-63.8306666 63.84 0 27.2933337 17.1293333 50.5866667 41.2573333 59.6933337-.5946667 1.026666-1.276 2-2.0653333 2.946666-3.1706667 3.76-7.3386667 6.16-11.8053334 7.146667-25.1293333-13.146667-42.28-39.466667-42.28-69.7866667 0-43.4666666 35.256-78.7333333 78.724-78.7333333 43.4679997 0 78.7226667 35.2666667 78.7226667 78.7333333 0 30.3199997-17.148 56.6399997-42.274667 69.7866667zm-10.384-36.146667c.381334-.413333.789334-.773333 1.213334-1.133333.402666-.346667.809333-.666667 1.233333-.933333.042667-.04.062667-.066667.108-.093334 8.552-7.76 13.934667-19 13.934667-31.4799997 0-23.52-19.041334-42.56-42.5533337-42.56-23.508 0-42.5533333 19.04-42.5533333 42.56 0 12.4799997 5.3853333 23.7199997 13.9373333 31.4799997.0413334.026667.0626667.053334.1066667.093334.4253333.266666.828.586666 1.232.933333.428.36.852.72 1.2333333 1.133333 5.448 5.333334 7.4933334 13.04 5.8306667 20.12-21.764-8.173333-37.2333333-29.146666-37.2333333-53.7599997 0-31.7333333 25.7226666-57.4533333 57.4466666-57.4533333 31.7226667 0 57.4466667 25.72 57.4466667 57.4533333 0 24.5866667-15.466667 45.5866667-37.213333 53.7599997-1.678667-7.106666.361333-14.786666 5.830666-20.12z"/><path d="m312.418835 101.260982c0 18.74875-6.869771 36.781899-31.91581 36.781899-10.304657 0-17.317548-2.433044-21.611155-11.449618v36.352538c-3.578006 0-13.023941.572481-16.315706-2.003684-2.146803-1.717442-2.576164-4.866087-2.576164-11.592738v-84.0115739c15.027624 0 15.027624 0 15.027624 8.7303339 5.152328-5.2954484 12.59458-9.5890552 25.18916-9.5890552 25.04604 0 32.202051 18.0331487 32.202051 36.7818982zm-19.17811 0h.14312c0-13.4533011-3.291765-21.1817934-17.174427-21.1817934-17.746909 0-17.746909.1431203-17.746909 21.1817934 0 12.880821 2.576165 20.895554 17.460668 20.895554 17.603788 0 17.317548-.143121 17.317548-20.895554zm44.232101-25.7616407c3.578006-5.8679293 11.592739-10.7340171 25.189161-10.3046564v8.8734541c-.715602 7.2991317-5.152329 6.7266508-11.306499 6.7266508-7.442251 0-9.445935.7156011-10.018415 7.1560114-.286241 2.4330438-.143121 5.4385686-.143121 9.0165743v38.7855815c-17.746908 0-19.03499-.572481-19.03499-13.596421v-56.8187309c15.313864 0 15.313864.7156012 15.313864 10.1615362zm50.100031 60.2536157c-17.603788 0-18.89187-.715601-18.89187-13.882662v-56.2462494c3.721126 0 13.023941-.5724809 16.315706 2.0036832 2.146804 1.7174427 2.576164 4.8660877 2.576164 11.5927385zm3.005525-88.1620601c0 8.4440934-5.724809 10.5908968-12.59458 10.5908968s-13.167061-2.1468034-13.167061-10.5908968c0-8.7303339 6.01105-10.5908969 13.167061-10.5908969 6.869771 0 12.59458 2.0036832 12.59458 10.5908969zm77.722235 88.1620601c-17.746908 0-18.89187-.572481-18.89187-13.739542v-24.9029192c0-12.1652194-1.860563-16.6019465-15.170744-16.6019465-15.743225 0-15.743225.2862405-15.886346 16.6019465l-.14312 38.6424612c-17.460668 0-18.74875-.715601-18.74875-13.739542v-83.4390925c17.460668 0 18.74875.7156011 18.74875 13.8826621v22.4698758c3.864246-5.5816889 10.447777-10.4477766 20.179952-10.4477766 24.90292 0 29.912128 14.0257823 29.912128 34.0626142zm79.153437 0c-15.313864 0-15.313864 0-15.313864-11.449618-3.721126 6.15417-12.022099 12.30834-23.901078 12.30834-25.04604 0-30.055248-13.739542-30.055248-32.917653v-38.3562209c17.603788 0 18.74875.7156012 18.74875 13.8826622v25.6185207c0 11.163378 2.146803 16.172586 15.456984 16.172586 16.029466 0 15.886346-.14312 15.886346-16.888187v-38.7855819c10.447776 0 14.312022.2862405 16.458826 2.0036832 3.005525 2.4330439 2.576164 8.5872137 2.576164 11.878979zm81.300241 0c-17.603788 0-18.89187-.572481-18.89187-13.596421v-25.3322807c0-11.4496182-1.860563-16.7450667-15.027624-16.7450667-8.300973 0-12.45146-.4293607-14.455143 1.5743225-2.146804 2.4330439-1.574323 12.5945801-1.574323 15.1707442v38.9287017c-3.721126 0-13.167061.715601-16.315706-1.860563-2.289923-1.717442-2.719284-5.009208-2.719284-11.735858v-56.6756106c15.313864 0 15.313864 0 15.313864 8.7303339 4.293607-5.1523282 12.022099-9.7321755 23.757958-9.7321755 24.90292 0 29.912128 14.3120228 29.912128 33.4901333zm53.248676-70.2720316c0 14.5982632-1.144962 15.6001048-14.168903 15.6001048h-4.722967v33.3470128c0 4.007367 1.144961 6.01105 4.722967 6.01105 6.583531 0 12.45146-.429361 13.023941 6.726651.28624 1.717442.429361 4.150486.429361 8.873454-25.618521 1.574322-37.35438-3.864246-37.35438-21.611155v-33.3470128h-9.589055l.429361-12.4514598c9.016574 0 9.016574 0 9.016574-6.0110496v-15.0276239h18.89187v17.8900285z"/></g></svg>