<svg height="800" viewBox="0 0 740 800" width="740" xmlns="http://www.w3.org/2000/svg"><g fill="#bf0d3e" fill-rule="evenodd"><path d="m640 270c0-149.112-120.8808-270-270-270-149.1156 0-270 120.888-270 270s120.8844 270 270 270c149.1192 0 270-120.888 270-270m-270.612-230.4c-126.9 0-229.788 102.888-229.788 229.788 0 72.9 33.9516 137.916 86.9796 179.964 2.466 1.944 4.9356 3.852 7.4664 5.688 2.5272 1.908 5.1084 3.672 7.758 5.4 2.5812 1.8 5.2272 3.456 7.92 5.112.18.108.3492.252.5148.36 2.3004 1.368 4.6008 2.7 7.0164 3.996 7.4088 4.212 15.1128 7.992 23.0328 11.268 1.6092.756 3.222 1.368 4.824 2.016 2.592 1.044 5.2848 2.052 7.9884 2.988 2.6388.936 5.2848 1.764 7.9884 2.628.63.252 1.314.432 2.0088.648 2.0088.576 4.0752 1.188 6.1488 1.728.8532.288 1.7748.504 2.7504.756 2.7036.684 5.5188 1.368 8.28 1.944 2.5236.576 5.0472 1.08 7.578 1.476.2844.144.5796.18.8604.18 1.152.252 2.2968.396 3.4488.576 1.7208.36 3.3948.576 5.112.792 3.2184.468 6.4944.864 9.7704 1.152 1.26.144 2.5272.252 3.726.36.3492.036.6408.036.918.036 2.538.252 5.0616.36 7.6428.468 3.3336.18 6.6636.252 10.0548.252 3.3876 0 6.7212-.072 10.0512-.252 2.592-.108 5.1192-.216 7.6428-.468.2916 0 .5724 0 .918-.036 1.2132-.108 2.4696-.216 3.7368-.36 3.2796-.288 6.552-.684 9.7632-1.152 1.728-.216 3.3876-.432 5.1156-.792 1.1448-.18 2.3004-.324 3.4452-.576.2916 0 .5724-.036.864-.18 2.5236-.396 5.058-.9 7.5852-1.476 2.7612-.576 5.5692-1.26 8.2692-1.944.9756-.252 1.8936-.468 2.7576-.756 2.0664-.54 4.1364-1.152 6.1524-1.728.6804-.216 1.3788-.396 2.0052-.648 2.7072-.864 5.4-1.692 8.046-2.628 2.6928-.972 5.3388-1.944 7.92-2.988 1.6164-.648 3.222-1.26 4.8276-2.016 7.9308-3.276 15.6276-7.056 23.0364-11.268 2.4156-1.296 4.7088-2.628 7.0092-3.996.1764-.108.3456-.252.5148-.36 2.7072-1.656 5.3424-3.312 7.9344-5.112 2.6352-1.728 5.2272-3.492 7.7544-5.4 2.5236-1.836 4.9896-3.744 7.47-5.688 53.0136-42.048 86.9688-107.064 86.9688-179.964 0-126.9-102.888-229.788-229.788-229.788zm98.4096 418.212c-12.06-2.664-23.3244-9.144-31.8852-19.296-2.1204-2.556-3.9636-5.184-5.5656-7.956 65.142-24.588 111.3804-87.48 111.3804-161.172 0-95.184-77.148-172.368-172.3392-172.368s-172.3428 77.184-172.3428 172.368c0 73.692 46.2492 136.584 111.3948 161.172-1.6056 2.772-3.4452 5.4-5.5764 7.956-8.5608 10.152-19.8144 16.632-31.8744 19.296-67.8492-35.496-114.156-106.56-114.156-188.424 0-117.36 95.1912-212.58 212.5548-212.58s212.5512 95.22 212.5512 212.58c0 81.864-46.2996 152.928-114.1416 188.424zm-28.0368-97.596c1.0296-1.116 2.1312-2.088 3.276-3.06 1.0872-.936 2.1852-1.8 3.33-2.52.1152-.108.1692-.18.2916-.252 23.0904-20.952 37.6236-51.3 37.6236-84.996 0-63.504-51.4116-114.912-114.894-114.912-63.4716 0-114.894 51.408-114.894 114.912 0 33.696 14.5404 64.044 37.6308 84.996.1116.072.1692.144.288.252 1.1484.72 2.2356 1.584 3.3264 2.52 1.1556.972 2.3004 1.944 3.33 3.06 14.7096 14.4 20.232 35.208 15.7428 54.324-58.7628-22.068-100.53-78.696-100.53-145.152 0-85.68 69.4512-155.124 155.106-155.124 85.6512 0 155.106 69.444 155.106 155.124 0 66.384-41.76 123.084-100.476 145.152-4.5324-19.188.9756-39.924 15.7428-54.324z"/><path d="m121.243389 696.585537c0 31.389099-11.501349 61.58014-53.4333512 61.58014-17.2520238 0-28.9929844-4.073394-36.1813276-19.168915v60.861306c-5.990286 0-21.80464112.958446-27.31570426-3.35456-3.59417162-2.875337-4.31300594-8.146789-4.31300594-19.408527v-140.651916c25.1592013 0 25.1592013 0 25.1592013 14.616298 8.6260119-8.865623 21.0858068-16.053966 42.1716136-16.053966 41.9320021 0 53.9125741 30.191041 53.9125741 61.58014zm-32.107933 0h.2396115c0-22.523475-5.5110632-35.462493-28.753373-35.462493-29.7118186 0-29.7118186.239611-29.7118186 35.462493 0 21.56503 4.3130059 34.98327 29.2325958 34.98327 29.4722072 0 28.9929843-.239611 28.9929843-34.98327zm74.053247-43.130059c5.990286-9.824069 19.408527-17.970858 42.171614-17.252024v14.855909c-1.198058 12.220184-8.626012 11.261738-18.929304 11.261738-12.459795 0-15.814355 1.198057-16.772801 11.980572-.479223 4.073394-.239612 9.105235-.239612 15.095521v64.9347c-29.711818 0-31.868321-.958446-31.868321-22.763087v-95.125742c25.638424 0 25.638424 1.198058 25.638424 17.012413zm83.877316 100.876416c-29.472207 0-31.62871-1.198057-31.62871-23.24231v-94.167296c6.229897 0 21.804641-.958446 27.315704 3.35456 3.594172 2.875338 4.313006 8.146789 4.313006 19.408527zm5.03184-147.600647c0 14.137075-9.584457 17.731246-21.085806 17.731246-11.50135 0-22.044253-3.594171-22.044253-17.731246 0-14.616298 10.06368-17.731247 22.044253-17.731247 11.501349 0 21.085806 3.35456 21.085806 17.731247zm130.122324 147.600647c-29.711818 0-31.62871-.958446-31.62871-23.002698v-41.692391c0-20.366972-3.114948-27.794927-25.398812-27.794927-26.357259 0-26.357259.479223-26.59687 27.794927l-.239612 64.695089c-29.232596 0-31.389099-1.198057-31.389099-23.002698v-139.69347c29.232596 0 31.389099 1.198057 31.389099 23.24231v37.618996c6.469509-9.344846 17.491635-17.491635 33.785213-17.491635 41.692391 0 50.078791 23.481921 50.078791 57.027523zm132.518439 0c-25.638424 0-25.638424 0-25.638424-19.168915-6.229898 10.303292-20.127361 20.606584-40.015111 20.606584-41.932002 0-50.318402-23.002698-50.318402-55.110632v-64.215866c29.472207 0 31.389098 1.198058 31.389098 23.24231v42.890448c0 18.689692 3.594172 27.076093 25.878036 27.076093 26.836481 0 26.59687-.239612 26.59687-28.27415v-64.934701c17.491635 0 23.961144.479223 27.555316 3.35456 5.03184 4.073395 4.313006 14.376687 4.313006 19.88775zm136.11261 0c-29.472207 0-31.62871-.958446-31.62871-22.763087v-42.411225c0-19.168915-3.114949-28.034538-25.159201-28.034538-13.897464 0-20.846196-.718835-24.200756 2.635726-3.594171 4.073394-2.635726 21.085806-2.635726 25.398812v65.174312c-6.229897 0-22.044252 1.198057-27.315704-3.114949-3.833783-2.875337-4.552617-8.3864-4.552617-19.648138v-94.88613c25.638424 0 25.638424 0 25.638424 14.616298 7.188343-8.626012 20.127361-16.293578 39.775499-16.293578 41.692391 0 50.078791 23.961144 50.078791 56.069077zm89.148768-117.649217c0 24.440367-1.916892 26.117647-23.721533 26.117647h-7.907177v55.829466c0 6.70912 1.916891 10.06368 7.907177 10.06368 11.022127 0 20.846196-.718834 21.804641 11.261738.479223 2.875337.718835 6.948732.718835 14.855909-42.890448 2.635726-62.538586-6.469509-62.538586-36.181327v-55.829466h-16.053967l.718835-20.846196c15.09552 0 15.09552 0 15.09552-10.06368v-25.159201h31.62871v29.95143z"/></g></svg>