<svg height="781" viewBox="0 0 700 781" width="700" xmlns="http://www.w3.org/2000/svg"><g fill="#bf0d3e" fill-rule="evenodd"><path d="m620 270c0-149.112-120.8808-270-270-270-149.1156 0-270 120.888-270 270s120.8844 270 270 270c149.1192 0 270-120.888 270-270m-270.612-230.4c-126.9 0-229.788 102.888-229.788 229.788 0 72.9 33.9516 137.916 86.9796 179.964 2.466 1.944 4.9356 3.852 7.4664 5.688 2.5272 1.908 5.1084 3.672 7.758 5.4 2.5812 1.8 5.2272 3.456 7.92 5.112.18.108.3492.252.5148.36 2.3004 1.368 4.6008 2.7 7.0164 3.996 7.4088 4.212 15.1128 7.992 23.0328 11.268 1.6092.756 3.222 1.368 4.824 2.016 2.592 1.044 5.2848 2.052 7.9884 2.988 2.6388.936 5.2848 1.764 7.9884 2.628.63.252 1.314.432 2.0088.648 2.0088.576 4.0752 1.188 6.1488 1.728.8532.288 1.7748.504 2.7504.756 2.7036.684 5.5188 1.368 8.28 1.944 2.5236.576 5.0472 1.08 7.578 1.476.2844.144.5796.18.8604.18 1.152.252 2.2968.396 3.4488.576 1.7208.36 3.3948.576 5.112.792 3.2184.468 6.4944.864 9.7704 1.152 1.26.144 2.5272.252 3.726.36.3492.036.6408.036.918.036 2.538.252 5.0616.36 7.6428.468 3.3336.18 6.6636.252 10.0548.252 3.3876 0 6.7212-.072 10.0512-.252 2.592-.108 5.1192-.216 7.6428-.468.2916 0 .5724 0 .918-.036 1.2132-.108 2.4696-.216 3.7368-.36 3.2796-.288 6.552-.684 9.7632-1.152 1.728-.216 3.3876-.432 5.1156-.792 1.1448-.18 2.3004-.324 3.4452-.576.2916 0 .5724-.036.864-.18 2.5236-.396 5.058-.9 7.5852-1.476 2.7612-.576 5.5692-1.26 8.2692-1.944.9756-.252 1.8936-.468 2.7576-.756 2.0664-.54 4.1364-1.152 6.1524-1.728.6804-.216 1.3788-.396 2.0052-.648 2.7072-.864 5.4-1.692 8.046-2.628 2.6928-.972 5.3388-1.944 7.92-2.988 1.6164-.648 3.222-1.26 4.8276-2.016 7.9308-3.276 15.6276-7.056 23.0364-11.268 2.4156-1.296 4.7088-2.628 7.0092-3.996.1764-.108.3456-.252.5148-.36 2.7072-1.656 5.3424-3.312 7.9344-5.112 2.6352-1.728 5.2272-3.492 7.7544-5.4 2.5236-1.836 4.9896-3.744 7.47-5.688 53.0136-42.048 86.9688-107.064 86.9688-179.964 0-126.9-102.888-229.788-229.788-229.788zm98.4096 418.212c-12.06-2.664-23.3244-9.144-31.8852-19.296-2.1204-2.556-3.9636-5.184-5.5656-7.956 65.142-24.588 111.3804-87.48 111.3804-161.172 0-95.184-77.148-172.368-172.3392-172.368s-172.3428 77.184-172.3428 172.368c0 73.692 46.2492 136.584 111.3948 161.172-1.6056 2.772-3.4452 5.4-5.5764 7.956-8.5608 10.152-19.8144 16.632-31.8744 19.296-67.8492-35.496-114.156-106.56-114.156-188.424 0-117.36 95.1912-212.58 212.5548-212.58s212.5512 95.22 212.5512 212.58c0 81.864-46.2996 152.928-114.1416 188.424zm-28.0368-97.596c1.0296-1.116 2.1312-2.088 3.276-3.06 1.0872-.936 2.1852-1.8 3.33-2.52.1152-.108.1692-.18.2916-.252 23.0904-20.952 37.6236-51.3 37.6236-84.996 0-63.504-51.4116-114.912-114.894-114.912-63.4716 0-114.894 51.408-114.894 114.912 0 33.696 14.5404 64.044 37.6308 84.996.1116.072.1692.144.288.252 1.1484.72 2.2356 1.584 3.3264 2.52 1.1556.972 2.3004 1.944 3.33 3.06 14.7096 14.4 20.232 35.208 15.7428 54.324-58.7628-22.068-100.53-78.696-100.53-145.152 0-85.68 69.4512-155.124 155.106-155.124 85.6512 0 155.106 69.444 155.106 155.124 0 66.384-41.76 123.084-100.476 145.152-4.5324-19.188.9756-39.924 15.7428-54.324z"/><path d="m59.5311184 634.345667c37.0745399 0 47.6672656 26.693669 47.6672656 54.44661s-10.1690166 54.44661-47.2435566 54.44661l-.9093711-.004371-.8977174-.013309c-.2973013-.005959-.5926672-.013457-.8861044-.022543l-.874532-.032072-.8630004-.041894c-.428624-.023453-.852939-.050699-1.2729676-.081906l-.8343492-.067743c-.2762159-.024374-.5505336-.050557-.8229599-.078599l-.8116113-.089748c-10.7460066-1.272297-18.4765609-5.596654-23.6255408-16.118688l-.1918775-.397488v53.811047l-.5579306.00262-4.3421701.065816-1.2889229.011584h-.8904716l-.9108096-.004759-1.1610878-.016221-1.178963-.029867-.9508502-.035325-.44858-.020524-.8972005-.049188c-4.6314171-.283506-9.1549809-1.03575-11.52442825-2.8901-1.86633738-1.49307-2.85579244-3.716875-3.35461096-7.315158l-.11186357-.902709-.0937458-.958985-.05304179-.671603-.04590448-.69814-.04790136-.91092-.03803609-.954527-.02380628-.79582-.01831604-.825102-.01319182-.854992-.01098047-1.33987-.00198259-.932389v-124.3586l3.6859363.002601 2.61650353.012402 1.44507802.015401 1.35500272.023427.85472472.02091.81683841.025726.7798108.031039.7436423.036852.879999.055.8265049.065837.6238154.061127c5.2651762.563967 6.8907881 2.035838 7.3926923 5.877207l.0530683.453833.0230624.23496.039718.486315.0318914.508594.035041.805755.0160823.566473.0112618.590498.0114969 1.255065.0025535 1.794103.5022468-.509061.2548094-.25286.5171539-.502191.5274184-.497235.5379441-.491978c.090549-.081542.1815474-.162852.2730008-.243925l.6945144-.603486.712083-.593984.5826587-.467949.5944903-.461192c.3002466-.228856.6050279-.455065.914491-.678459l.625212-.442982c7.1574683-4.976779 16.7706171-8.44895 30.5503716-8.44895zm149.1564736 3.813381c2.126337 1.594753 3.168922 4.189893 3.650706 8.412961l.073294.699191c.011424.118943.022459.2391.033115.360483l.059476.743115c.009183.126338.018008.253927.026485.38278l.046773.788376c.007128.133956.013929.269201.020412.405746l.035186.834976.028079.866787.021469.899191.015354.93219.009735.965785.005151 1.504198.000947 39.905505.007807.984361.016199.962085.025203.939905.03482.917827c.019915.453409.043666.898576.071597 1.335556l.061536.863058.073294.841325c1.111264 11.626865 5.859019 16.89286 21.797193 17.016361l.579837.002226 3.92752-.006979 1.185526-.008118 1.137239-.012716 1.089954-.018335 1.043675-.024976.998398-.032639.954126-.041321c9.789404-.483043 12.423294-2.571036 13.131367-11.584629l.06178-.879546.051139-.922446.041502-.966367c.006169-.164778.011979-.331429.01745-.499973l.028928-1.034164.021801-1.080638.015677-1.128133.016998-2.40284.004551-2.605079.000075-61.069197 2.984435.006062 1.41029.008791 1.357028.01371 1.304782.019438 1.253552.025976 1.203337.033321 1.154141.041477c.188313.007638.374619.015649.558938.02405l1.08225.055227 1.035593.065405c11.138636.778401 13.993531 3.550967 14.651812 13.163761l.053962.892869.042876.931365.032805.970671.023752 1.010785.015715 1.051709.011382 1.656064v84.049885c0 20.344389-8.513183 40.351928-50.61814 40.750045l-1.286216.006042h-49.997665l-.004924-1.517173-.021997-2.394112-.019088-1.796718-.008813-1.279822-.00098-.821487.008909-1.185329.014627-.759355.022995-.734986.032574-.710893.043369-.687076.055376-.663535c.659035-6.953147 3.574499-9.935877 15.374481-10.457024l1.13248-.041692 1.18575-.027544c.404264-.006855.817609-.011397 1.240236-.013674l.647475-.001722 30.692647.000548 4.27444.06357 2.084661.014701 1.330838-.002452 1.368014-.014376.923428-.017609 1.38842-.040555.919719-.037691.908538-.047194.891817-.05754c.146936-.010499.292943-.021464.437908-.032912l.856348-.074635c2.666287-.255607 4.872721-.698447 5.827578-1.448691 1.079736-.74751 1.671042-2.744673 1.990937-5.06271l.077437-.611374c.023855-.20581.0458-.413436.065979-.622267l.055378-.629497.045633-.633062.036744-.632962.028712-.6292.021534-.621773.020719-.910719.009388-.873396.000727-.891407-.022254-2.395204-.000535-14.590518c-5.720072 10.80458-15.889088 15.677234-30.083341 15.677234-36.494058 0-44.12635-18.687475-44.275346-47.223249l-.002247-.867726v-58.471845l.980727-.008208 1.481254-.02986 2.524289-.058976 1.366895-.024016 1.417445-.013072h.965906c.162083 0 .324656.001858.487629.003344l.981931.014051.987258.025401c4.942468.158081 9.924021.802561 12.534372 2.845444zm274.434319-2.542254h1.016667l3.156077.012574 2.406103.024728 1.350351.022095 1.696026.038968 1.196449.037007 1.134041.044234 1.073765.051962 1.015618.060192.959602.068923.905717.078156.574927.057481.552556.061956.530817.066579.509708.071352.489231.076272.469385.081342.45017.086559.431587.091926c.140835.031553.278679.064025.413635.097441l.396314.103105c.064644.017664.128593.035571.191859.053723l.371517.111879.355774.117914c.058018.020163.115407.040584.17218.061266l.333344.127246.319178.133652c.052052.022817.103539.045908.154475.069275l.299116.14354c.048786.024484.097048.049251.144799.074303l.280472.153763c.045758.026207.091031.052705.135832.079498l.263251.164321.252557.171545.242497.178917c.039613.030442.078832.061197.117672.092269 2.9919 2.422015 3.684323 7.335129 3.816958 11.775429l.016877.715436.008711.704339.001363 1.029555-.028243 2.806139-.002284.553027.211854 83.682533-3.147772-.001947-2.202816-.008772-2.030533-.020866-1.414058-.026742-.892521-.024339-.853396-.030314-.815149-.036943c-.132719-.006746-.263882-.013795-.393505-.021162l-.759421-.048117-.723365-.056386-.688187-.065309-.653885-.07489c-5.308552-.665819-7.135348-2.397846-7.763991-6.903446l-.069832-.554095c-.010729-.094604-.021015-.190345-.030877-.287237l-.054223-.595263-.044913-.623529-.036479-.652449-.028924-.682027-.022244-.712258-.016442-.743147-.011517-.77469-.011764-1.646633-.002619-2.3578c-1.25731 2.079398-2.867845 4.158796-4.813967 6.129851l-.565151.560117c-6.603903 6.405289-16.812642 11.52952-30.000586 11.52952-36.703794 0-44.338184-19.933306-44.487201-47.87731l-.002247-.849228v-56.77701l3.69329.009894 2.050912.01867 1.300698.019438 1.248668.025975 1.197695.033322 1.147777.041477c.187195.007637.372354.015648.555499.024049l1.07488.055227 1.027601.065405c10.545297.743019 13.446515 3.303036 14.203477 11.894869l.065785.836642c.029827.427574.055187.869129.076675 1.32512l.037989.931365c.005529.15848.010673.318599.015452.480371l.024478.990627c.00341.168459.006499.338605.00929.510457l.01766 1.593163.005116 1.693817.000947 38.410063.007812.960179.016219.938869.025248.917638c.004995.151175.010392.301468.016204.450882l.039957.885939c.022573.437705.049114.867522.079974 1.289496l.06758.833504c.036773.411536.078097.815258.124323 1.211211l.099088.781561.112781.760922c1.557827 9.758172 6.743953 14.304381 21.704024 14.419028l.58613.002226 3.892745-.006897 1.744521-.013645 1.637947-.024961 1.034415-.024601.989536-.03214c.161238-.00604.320648-.012437.47825-.01921l.924084-.045331.881694-.055379c8.751776-.617508 11.085541-2.948651 11.707287-11.740704l.0558-.885795c.008436-.151161.016452-.304101.024071-.458839l.041102-.950186c.00611-.162018.011864-.325877.017281-.491598l.028645-1.016835.030037-1.611232.017507-1.717416.01086-3.766943zm188.27773-26.26996v26.481815h28.600359l-.005005 1.890987-.009692 1.201771-.015667 1.155705-.022404 1.110535-.029903 1.066258c-.005651.17407-.011647.346332-.018002.516806l-.042583 1.001523-.051989.959484c-.009491.15646-.019406.311206-.02976.464257l-.067529.898104c-.779286 9.365908-3.489329 11.939022-12.295358 12.606543l-.843552.057147c-.143611.008643-.288742.016859-.435408.024665l-.89856.042076-.936185.033148-.974573.025114-1.013724.017975-1.053638.011732-1.656961.007848-7.564303.000464v49.362101c0 5.825999 1.634847 8.791017 6.7109 8.895053l.280299.002837 2.600551-.006796 1.70763.004078 1.1696.017037.575383.014894.850211.032228.557661.029072.549892.035934.541732.04348.533182.051706c.08813.009341.175887.019054.263263.029151l.519629.065324c.085821.011696.171247.023806.256267.036344l.505198.080475c.166736.028613.331788.059051.49509.091429l.484594.103063c4.233073.96378 7.192022 3.369046 7.668878 9.329743l.087552.561831.081067.599354.050441.422931.070258.673215.063773.724325.057287.780532.034588.554096.046479.885532.027382.628816.03567 1.004687.029184 1.082975.022698 1.166358.01153.826412.01189 1.316653.005764 1.907263c-37.542738 2.307096-54.944531-5.560101-55.288813-31.207391l-.005215-.782641v-49.362101h-14.194252l.635563-18.431343 2.60004-.00301 1.624602-.012037 1.17496-.020524.811721-.023919.754478-.032776.472217-.027461.448325-.032432.425054-.037816.402403-.043614.380373-.049825c.061594-.008844.122295-.017965.182118-.02737l.348489-.059917c.056358-.010578.111862-.021458.166526-.032649l.318002-.070938c1.540616-.37401 2.348112-1.042954 2.771351-2.239408l.079627-.246393c.012452-.042261.024503-.085125.036165-.128601l.065421-.268269c.010161-.045958.01996-.092546.02941-.139771l.052608-.291075c.008104-.049811.015884-.100277.023354-.151407l.041192-.314811.034356-.331152.028141-.347906.031913-.554179.021418-.594202.009481-.419059.012236-1.371762.000854-23.270331zm-92.160346 24.998833c36.494059 0 44.126351 20.763861 44.275347 48.724476l.002247.84948v55.929592l-2.258449-.002703-2.134123-.009952-1.355406-.012027-1.30274-.017296-1.25111-.023385-1.200516-.030291c-.195927-.00567-.38979-.011661-.581609-.017992l-1.126568-.042187-1.078565-.051142c-11.779808-.62413-14.774718-3.076302-15.476406-12.488033l-.056881-.861583-.045655-.89961-.035468-.938456-.026315-.978122-.018198-1.018607-.011119-1.05991-.005668-1.674883-.00084-38.003968-.006867-.985229-.014326-.963889c-.003045-.158873-.006428-.31686-.010163-.473961l-.026734-.931991-.035821-.910801-.045559-.889668c-.00844-.14652-.017314-.292162-.026634-.436928l-.061386-.858081-.072752-.837098c-.013109-.13777-.026718-.274669-.040841-.410698l-.091022-.805732c-1.315034-10.73661-6.182255-15.777183-21.811779-15.777183l-.734266-.000737-3.452551-.019597-3.680878-.031181-1.11994-.005072-1.202228.000872-.870422.006745-.834192.013151-.798692.020602-.763923.029097-.729886.038637-.696579.049221c-.113362.009143-.225366.018771-.336029.028906l-.647991.067056c-2.528523.29392-4.30157.90454-5.529729 2.1327-1.61584 1.831284-2.190969 6.620377-2.365968 11.387189l-.029854.952182c-.00415.158353-.007903.316461-.011282.474213l-.015985.941357-.009664 1.384433.007852 1.766568.03771 2.393745.050859 2.491078.005932.665813v57.624428l-.920276.007681-4.745892.102257-1.378791.018822-.946427.00588-1.449543-.004827c-.162598-.001598-.325617-.003581-.488966-.005979l-.983327-.019605c-.164304-.004178-.328757-.008832-.493266-.013992l-.987001-.037273c-4.602356-.20455-9.105965-.853464-11.508628-2.614144l-.249297-.192929c-2.240631-1.680473-3.277872-4.379199-3.723617-8.891638l-.063992-.708638-.055154-.737901-.04681-.767807-.038963-.798356-.03161-.82955-.024753-.861387-.025354-1.353183-.01271-1.428438-.002273-.995172v-83.894387l3.744932.002575 2.642074.01215 1.927168.021715 1.768758.036572 1.226699.039509.771834.033.736054.038892.701122.04527.667039.052131.633806.059476c.411648.042207.801707.089634 1.171309.142925l.539201.084417.509364.093699c3.463107.68951 4.795648 2.096823 5.308386 4.969195l.067813.420386c.01042.071752.02041.144355.029989.217819l.052675.451193.043643.472336.035463.493963.02813.516074.021646.53867.022172.851431.012362.904994.006182 1.296195.000612 1.128538c6.355635-7.626763 17.795779-14.406107 35.167849-14.406107zm-402.807015 1.042258.613528.017015v13.134979c-.566946 5.782853-2.711793 8.22784-5.979794 9.251389l-.414317.120679-.425819.106704-.437124.093561c-.073785.014544-.148033.028576-.22274.042111l-.453711.075406c-.076525.011623-.1535.022784-.230922.033502l-.469854.059123c-.079191.009012-.15882.017616-.238883.025828l-.485553.04471-.495772.036143c-.083469.005355-.167356.010389-.251657.015117l-.510731.02485-.78427.025367-.534676.010187-1.096851.007977-1.284616-.003872-1.598144-.009633-1.535828-.000373-1.029212.00921-.978841.018774-.929745.029933-.881923.042684-.562012.036328-.541703.043177c-.088612.007793-.176394.015891-.263354.024304l-.511947.054335-.492583.062364-.473596.070865c-.077372.012546-.153968.025465-.229796.038769l-.445825.084503c-3.493926.714126-5.255814 2.357748-6.156216 6.019059l-.108127.468251c-.017294.07982-.03423.160535-.050816.242155l-.095374.500663-.087345.522862-.079694.545532-.07242.568676-.065524.59229-.059007.616378c-.222447 1.890802-.269717 4.015173-.264434 6.373114l.013562 1.981343.028769 2.803938.009015 1.471461.001233 58.129552-2.27677-.002703-2.151356-.009952-1.366306-.012027-1.313182-.017296-1.261103-.023385-1.21007-.030291c-.197484-.00567-.392885-.011661-.586225-.017992l-1.135482-.042187-1.087064-.051142c-11.872438-.62413-14.884301-3.076302-15.589093-12.488033l-.057123-.861583-.045834-.89961-.035591-.938456c-.005137-.159692-.00989-.321037-.014282-.484052l-.022188-.998262-.014561-1.039156-.01042-1.637201v-84.679093l1.903265.002921 1.793634.009898 1.687255.018577 1.067343.018047 1.022473.023165.978565.028787.935622.034914.893642.041545.852625.04868.812573.056319.773484.064464c7.039761.641231 9.097769 2.412487 9.699409 7.158826l.059049.520004c.008966.088593.017508.178156.025646.268698l.044138.555103.0354.579133.027627.603665.020818.628704.020567.991104.012581 1.413812.002717 1.975305c5.242318-8.597402 16.91878-15.741933 36.672866-15.27054zm148.49828-19.417244.000594 33.840366c5.720072-8.262327 15.46538-15.46538 29.871487-15.46538 36.494059 0 44.12635 20.348584 44.275347 49.534267l.002246.887107v55.082174l-2.27622-.002709-2.149752-.009991-2.02688-.02007-1.284768-.020362-1.232822-.026913-1.181942-.034294-1.132127-.042504-1.083379-.051542-1.035696-.061409c-10.965603-.721707-13.724597-3.326357-14.373855-12.555963l-.054117-.870919-.043198-.90938-.033345-.94867-.024558-.98879c-.00342-.168188-.006518-.338081-.009316-.509699l-.0177-1.591554-.00512-1.693264-.000841-37.399488-.002543-.524701-.010527-1.029419-.01833-1.002964-.026795-.976736-.035922-.950735-.045708-.924961c-.00847-.152025-.017376-.302986-.026731-.452886l-.061629-.886726-.073068-.861518-.085169-.836539c-1.234442-11.12568-5.957696-15.484542-21.489122-15.589201l-1.937226-.001256-2.504963.008378-1.177668.009743-1.675884.024428-1.058347.024318-1.012423.031936-.967528.040576c-.315142.015079-.622974.031768-.923667.050237l-.880834.06092c-8.740911.677117-11.000905 3.168875-11.654525 12.305903l-.059282.920325-.049952.964208-.041653 1.009112-.034384 1.055038-.028146 1.101985-.032779 1.743238-.038048 3.154607-.018736 2.069492-.211855 57.200719-2.240127-.003253-2.11689-.011556-1.344505-.013649-1.292298-.019338-1.241117-.025826-1.190962-.033113-1.141834-.041199c-.186269-.007585-.370533-.01554-.552815-.023882l-1.070065-.054826c-11.861614-.677007-14.752087-3.296924-15.393497-13.095214l-.05093-.883317-.040282-.921374c-.005883-.156778-.011366-.315176-.016469-.475209l-.026235-.979958-.018154-1.020014-.011098-1.060869-.005663-1.675436v-123.511182l2.95928.006062 2.07658.014981 1.318273.016473 1.266579.022606 1.215912.029547 1.16627.037298 1.117654.045858 1.070066.055227 1.023502.065405c10.505912.743019 13.481169 3.303036 14.271393 11.894869l.068824.836642c.020853.285049.039675.576312.056638.873924l.045477.912016.035343.950916.026236.990627.018154 1.031146.011098 1.072473zm-271.331368 41.467128-3.5983441.004839-1.3312387.007218-1.8975226.020445-1.2003711.021889-1.7062984.048389-1.0762731.044476-.7249192.037752-1.0443272.067917-.6680587.053436-.6459647.06047-.6242422.067938-.6028912.075841c-.0987232.013323-.1965724.026993-.2935551.04102l-.5715613.088509-.5511391.097498c-4.9596422.936259-7.3920666 3.060234-8.5850333 7.877774l-.1252869.536308-.1158247.558112c-.0185363.09486-.0366937.190646-.0544801.287369l-.1023281.591634c-.0326665.201002-.0639107.40582-.0937946.614525l-.0856328.637851c-.0136127.108276-.0269007.217542-.0398718.327808l-.0740867.673653-.0668536.698065-.0599921.722911-.0535021.748191-.0473836.773906-.0416367.800056-.0362613.826639c-.0056162.140013-.011024.281151-.016231.423425l-.0484598 1.568192-.0352114 1.657514-.0108489.688569-.0168956 1.421835-.0113954 1.482483-.0106228 3.15198-.0016197 3.548031.0046913 1.135334.0145349 1.117822.0235556 1.045508c.0047512.172907.0099233.345139.0155286.516692l.0389292 1.021139.0499192 1.004655.0615022.987978c1.0236186 14.856891 6.248409 23.893354 24.982055 24.098077l.6555347.003554 2.9151347-.002259 1.974006-.00928 1.2503611-.011876 1.7797589-.029366 1.1242151-.029042.7473185-.025201 1.0783807-.046687.6910363-.037626.6691402-.04329.6475963-.049351.6264049-.055808c.1026545-.009862.2044406-.020009.3053658-.03045l.5952785-.06624.574968-.073688.55501-.081535.5354042-.089779.5161509-.098418c4.9819768-1.011562 7.2225291-3.333833 8.2294035-8.664545l.0981999-.552544.0900466-.573682.0822457-.595218.0747972-.61715.067701-.639479.0609572-.662205.0545659-.685327.0485268-.708847c.0076041-.120123.0149713-.241243.0221089-.363367l.4321679-16.088499-.0014726-.594884-.0119753-1.174445c-.018125-1.164192-.0549585-2.297557-.1128341-3.399454l-.0649763-1.091383c-.0120271-.180142-.0246605-.359403-.0379107-.537781l-.0869908-1.059649c-1.3554571-15.035742-7.4334783-23.496872-25.1063819-23.496872z" fill-rule="nonzero"/></g></svg>